# xmcd
#
# Track frame offsets:
#	150
#	29574
#	61791
#	80977
#	94299
#
# Disc length: 1706 seconds
#
# Revision: 1
# Processed by: cddbd v1.5.2PL0 Copyright (c) Steve Scherf et al.
# Submitted via: audiograbber 1.83.01
#
DISCID=3f06a805
DTITLE=Yellow Swans With John Wiese - Portable Dunes
DYEAR=2009
DGENRE=Noise
TTITLE0=That's A Lot To Ask
TTITLE1=Evicted CDR
TTITLE2=Disco Girlfriend
TTITLE3=Happy New Year
TTITLE4=Lost In The Flood
EXTD=
EXTT0=
EXTT1=
EXTT2=
EXTT3=
EXTT4=
PLAYORDER=
